# xmcd
#
# Track frame offsets:
#	150
#	15712
#	32037
#	46337
#	60037
#	73500
#	87537
#	102737
#	117487
#	133787
#	146337
#	158262
#	171687
#	185950
#	199537
#	214225
#	227637
#	241562
#
# Disc length: 3408 seconds
#
# Revision: 0
# Processed by: cddbd v1.4PL0 Copyright (c) Steve Scherf et al.
# Submitted via: dBpowerAMP V4.0
#
DISCID=fc0d4e12
DTITLE=Bumble Bee Slim - (1931-1937)
DYEAR=1937
DGENRE=Blues
TTITLE0=No Woman, No Nickel
TTITLE1=Squalling Panther Blues
TTITLE2=Bye Bye Baby Blues
TTITLE3=Deep Bass Boogie
TTITLE4=Climbing on Top of the Hill
TTITLE5=Right from Wrong
TTITLE6=Can't You Trust Me No More
TTITLE7=I Done Lost My Baby
TTITLE8=Steady Roll Mama Blues
TTITLE9=How Long, How Long Blues
TTITLE10=You Don't Mean Me No Good
TTITLE11=Must I Keep on Crying
TTITLE12=Letter Writing
TTITLE13=Slave Man Blues
TTITLE14=Rising River Blues
TTITLE15=12 O'Clock Midnight
TTITLE16=You Brought Me Back
TTITLE17=Going Back to Florida
EXTD=submitted by Tom Sutpen
EXTT0=
EXTT1=
EXTT2=
EXTT3=
EXTT4=
EXTT5=
EXTT6=
EXTT7=
EXTT8=
EXTT9=
EXTT10=
EXTT11=
EXTT12=
EXTT13=
EXTT14=
EXTT15=
EXTT16=
EXTT17=
PLAYORDER=
